<svg id="Capa_1" enable-background="new 0 0 512.031 512.031" height="512" viewBox="0 0 512.031 512.031" width="512" xmlns="http://www.w3.org/2000/svg"><g><path d="m510.825 163.795c-4.083-32.152-18.4-61.306-41.405-84.311-56.71-56.708-148.982-56.709-205.692 0l-7.699 7.699c-1.124-1.117-6.638-6.602-7.74-7.698-27.471-27.477-63.995-42.609-102.843-42.609s-75.373 15.131-102.851 42.61c-57.643 57.668-57.104 152.535 3.586 209.032-3.664 21.811 13.244 41.227 35.004 40.983-.216 19.906 15.919 35.709 35.505 35.481-.121 9.877 3.777 18.75 10.265 25.238 12.206 12.221 30.871 13.396 44.294 4.404 1.694 5.154 4.575 9.878 8.523 13.826l56.44 56.44c6.844 6.843 15.832 10.265 24.821 10.265 19.534 0 35.302-15.878 35.076-35.494 19.927.232 35.726-15.931 35.5-35.5 19.973.232 35.733-15.985 35.5-35.515 9.455.114 18.37-3.51 25.014-10.035.474-.444 75.329-71.562 77.112-73.256.061-.059.123-.118.184-.179 32.082-32.082 47.173-76.327 41.406-121.381zm-490.818 18.53c0-5.387.344-10.764 1.024-16.01 3.521-27.704 15.868-52.84 35.708-72.688 23.698-23.699 55.202-36.75 88.707-36.75s65.006 13.051 88.7 36.75c54.928 54.877-17.879-17.921 57.696 57.656 7.867 7.866 7.864 20.594 0 28.457-7.84 7.841-20.576 7.88-28.457 0l-51.727-51.726c-3.496-3.494-8.968-3.866-12.89-1.052-.311.222-1.009.796-1.477 1.295-148.076 148.084-141.295 141.279-141.649 141.666-22.992-23.556-35.635-54.602-35.635-87.598zm251.707 268.422c-5.903 5.903-15.454 5.903-21.357 0l-56.441-56.44c-5.9-5.9-5.904-15.454.001-21.357 5.885-5.887 15.469-5.889 21.357 0l56.44 56.439c5.887 5.89 5.888 15.471 0 21.358zm35.5-35.5c-5.901 5.901-15.454 5.905-21.357 0l-56.441-56.44c-5.902-5.902-5.902-15.454.001-21.357 5.885-5.887 15.469-5.889 21.356 0l56.441 56.439c5.887 5.89 5.888 15.471 0 21.358zm35.5-35.5s-.001 0-.001.001c-5.9 5.9-15.454 5.904-21.357-.001l-56.441-56.44c-5.889-5.888-5.888-15.469-.001-21.357 5.887-5.885 15.47-5.891 21.358 0l56.441 56.441c5.889 5.888 5.889 15.469.001 21.356zm14.142-35.499-56.441-56.441c-5.889-5.888-5.889-15.469 0-21.356 5.901-5.901 15.455-5.905 21.357 0l56.441 56.44c5.902 5.902 5.902 15.454-.001 21.357-5.885 5.888-15.468 5.89-21.356 0zm98.509-73.303-54.453 51.733c-1.689-5.194-4.583-9.957-8.557-13.93l-56.44-56.44c-6.63-6.63-15.444-10.282-24.821-10.282-19.658 0-35.309 16.035-35.075 35.526-19.745-.236-35.736 15.739-35.5 35.5-19.552-.234-35.739 15.537-35.516 35.5-8.694-.1-17.413 3.001-24.226 9.302-.889.711-.043-.014-18.326 18.231-5.894 5.9-15.232 5.808-21.067.273-6.119-5.804-6.327-15.582-.282-21.629l98.069-98.06c3.906-3.905 3.906-10.236.001-14.142-3.903-3.904-10.236-3.906-14.142 0l-98.07 98.06c-5.886 5.886-15.47 5.886-21.361 0-5.867-5.867-5.93-15.419-.001-21.362l98.069-98.059c3.906-3.905 3.906-10.236.001-14.142-3.903-3.904-10.236-3.906-14.142-.001l-98.074 98.063c-5.844 5.85-15.393 5.957-21.349-.005-10.578-10.575.414-20.901.736-22.086l133.758-133.759 44.646 44.646c15.705 15.706 41.092 15.651 56.742 0 15.68-15.68 15.682-41.059 0-56.742l-35.814-35.815 7.699-7.699c48.91-48.91 128.495-48.91 177.407 0 19.841 19.841 32.189 44.976 35.709 72.698 4.971 38.835-8.011 76.959-35.621 104.621z"/></g></svg>